<?xml version="1.0" standalone="no"?>
<!DOCTYPE svg PUBLIC "-//W3C//DTD SVG 20010904//EN"
 "http://www.w3.org/TR/2001/REC-SVG-20010904/DTD/svg10.dtd">
<svg version="1.0" xmlns="http://www.w3.org/2000/svg"
 width="360.000000pt" height="360.000000pt" viewBox="0 0 360.000000 360.000000"
 preserveAspectRatio="xMidYMid meet">

<g transform="translate(0.000000,360.000000) scale(0.100000,-0.100000)"
fill="#000000" stroke="none">
<path d="M1710 2443 c-14 -3 -57 -20 -97 -39 -158 -75 -263 -255 -263 -449 0
-242 165 -450 387 -488 264 -46 513 191 513 488 0 275 -203 499 -447 494 -37
-1 -79 -4 -93 -6z"/>
<path d="M1655 1355 c-254 -48 -479 -229 -575 -464 -13 -33 -13 -35 19 -61 96
-80 313 -174 478 -206 125 -25 338 -23 463 3 165 36 367 124 462 203 l32 27
-18 43 c-48 121 -161 256 -279 334 -180 118 -379 159 -582 121z"/>
</g>
</svg>
